<svg width="17" height="28" viewBox="0 0 17 28" fill="none" xmlns="http://www.w3.org/2000/svg">
<path d="M16.408 0H0.591795C0.265153 0 6.45124e-07 0.309841 6.45124e-07 0.69214V26.6147C-0.000461665 27.134 0.247584 27.6099 0.642422 27.8473C1.03749 28.0844 1.51278 28.043 1.87317 27.7399L8.49988 22.1842L15.1268 27.7397C15.4875 28.0422 15.9623 28.0833 16.3571 27.8462C16.7517 27.6091 17 27.1335 17 26.6147V0.69214C17 0.309841 16.7348 0 16.408 0ZM15.8162 26.6144L8.84502 20.7699C8.63882 20.5971 8.36141 20.5971 8.15544 20.7699L1.18405 26.6147V1.38428H15.8162V26.6144Z" fill="white"/>
</svg>
